<svg xmlns="http://www.w3.org/2000/svg" viewBox="0 0 1140 520"
     font-family="ui-sans-serif,system-ui,-apple-system,'Segoe UI',Roboto,sans-serif" role="img"
     aria-label="Tau Ceti — lines of Lean per roadmap: 85,338 net lines across 14 roadmaps as of 2026-07-08">
  <style>
    .grid{stroke:rgba(255,255,255,0.08);stroke-width:1}
    .axis{stroke:rgba(255,255,255,0.18);stroke-width:1}
    .ytick{fill:#9aa6c9;font-size:13px;text-anchor:end}
    .xtick{fill:#9aa6c9;font-size:13px;text-anchor:middle}
    .title{fill:#eef2fb;font-size:19px;font-weight:600}
    .sub{fill:#9aa6c9;font-size:13px}
    .legendhead{fill:#9aa6c9;font-size:12px;font-weight:600}
    .legend{fill:#eef2fb;font-size:12.5px}
    .legendval{fill:#9aa6c9;font-size:12.5px;text-anchor:end;font-variant-numeric:tabular-nums}
  </style>
  <rect x="0.5" y="0.5" width="1139" height="519" rx="12" fill="#101936" stroke="#1b2547"/>
  <text class="title" x="72" y="30">Tau Ceti — lines of Lean per roadmap</text>
  <text class="sub" x="72" y="48">85,338 net lines across 14 roadmaps as of 2026-07-08</text>
  <line class="grid" x1="72" y1="468.0" x2="810" y2="468.0"/><text class="ytick" x="60" y="472.0">0</text><line class="grid" x1="72" y1="386.8" x2="810" y2="386.8"/><text class="ytick" x="60" y="390.8">20,000</text><line class="grid" x1="72" y1="305.6" x2="810" y2="305.6"/><text class="ytick" x="60" y="309.6">40,000</text><line class="grid" x1="72" y1="224.4" x2="810" y2="224.4"/><text class="ytick" x="60" y="228.4">60,000</text><line class="grid" x1="72" y1="143.2" x2="810" y2="143.2"/><text class="ytick" x="60" y="147.2">80,000</text><line class="grid" x1="72" y1="62.0" x2="810" y2="62.0"/><text class="ytick" x="60" y="66.0">100,000</text>
  <polygon points="72.0,467.2 180.5,458.1 202.2,447.8 223.9,444.7 245.6,440.4 267.4,438.8 289.1,437.5 310.8,434.8 332.5,429.4 354.2,429.1 375.9,427.4 397.6,423.5 419.3,421.4 441.0,419.9 462.7,416.9 484.4,416.1 506.1,415.5 527.8,414.0 549.5,412.5 571.2,411.8 592.9,410.4 614.6,410.4 636.4,409.7 658.1,409.7 679.8,408.4 701.5,407.9 723.2,407.9 744.9,406.7 766.6,406.0 788.3,404.4 810.0,402.6 810.0,468.0 788.3,468.0 766.6,468.0 744.9,468.0 723.2,468.0 701.5,468.0 679.8,468.0 658.1,468.0 636.4,468.0 614.6,468.0 592.9,468.0 571.2,468.0 549.5,468.0 527.8,468.0 506.1,468.0 484.4,468.0 462.7,468.0 441.0,468.0 419.3,468.0 397.6,468.0 375.9,468.0 354.2,468.0 332.5,468.0 310.8,468.0 289.1,468.0 267.4,468.0 245.6,468.0 223.9,468.0 202.2,468.0 180.5,468.0 72.0,468.0" fill="#5eead4" fill-opacity="0.82" stroke="#5eead4" stroke-width="0.6"/><polygon points="72.0,467.2 180.5,458.1 202.2,447.8 223.9,444.7 245.6,440.4 267.4,438.8 289.1,437.5 310.8,434.8 332.5,429.4 354.2,429.1 375.9,421.8 397.6,408.7 419.3,402.4 441.0,398.8 462.7,394.5 484.4,391.7 506.1,389.6 527.8,388.1 549.5,385.8 571.2,384.6 592.9,381.1 614.6,378.7 636.4,378.0 658.1,377.3 679.8,375.1 701.5,374.6 723.2,374.6 744.9,372.2 766.6,370.2 788.3,368.6 810.0,366.7 810.0,402.6 788.3,404.4 766.6,406.0 744.9,406.7 723.2,407.9 701.5,407.9 679.8,408.4 658.1,409.7 636.4,409.7 614.6,410.4 592.9,410.4 571.2,411.8 549.5,412.5 527.8,414.0 506.1,415.5 484.4,416.1 462.7,416.9 441.0,419.9 419.3,421.4 397.6,423.5 375.9,427.4 354.2,429.1 332.5,429.4 310.8,434.8 289.1,437.5 267.4,438.8 245.6,440.4 223.9,444.7 202.2,447.8 180.5,458.1 72.0,467.2" fill="#ff9d4d" fill-opacity="0.82" stroke="#ff9d4d" stroke-width="0.6"/><polygon points="72.0,467.2 180.5,458.1 202.2,447.8 223.9,444.7 245.6,440.4 267.4,438.8 289.1,437.5 310.8,434.8 332.5,429.4 354.2,429.1 375.9,421.8 397.6,408.7 419.3,402.4 441.0,396.2 462.7,387.8 484.4,384.5 506.1,379.4 527.8,378.0 549.5,372.6 571.2,369.9 592.9,364.6 614.6,362.2 636.4,356.3 658.1,345.6 679.8,343.4 701.5,342.3 723.2,342.3 744.9,339.2 766.6,337.2 788.3,335.6 810.0,333.1 810.0,366.7 788.3,368.6 766.6,370.2 744.9,372.2 723.2,374.6 701.5,374.6 679.8,375.1 658.1,377.3 636.4,378.0 614.6,378.7 592.9,381.1 571.2,384.6 549.5,385.8 527.8,388.1 506.1,389.6 484.4,391.7 462.7,394.5 441.0,398.8 419.3,402.4 397.6,408.7 375.9,421.8 354.2,429.1 332.5,429.4 310.8,434.8 289.1,437.5 267.4,438.8 245.6,440.4 223.9,444.7 202.2,447.8 180.5,458.1 72.0,467.2" fill="#60a5fa" fill-opacity="0.82" stroke="#60a5fa" stroke-width="0.6"/><polygon points="72.0,467.2 180.5,458.1 202.2,447.8 223.9,444.7 245.6,440.4 267.4,438.8 289.1,437.5 310.8,434.8 332.5,429.4 354.2,429.1 375.9,421.8 397.6,407.5 419.3,396.9 441.0,388.6 462.7,374.9 484.4,370.7 506.1,362.1 527.8,358.9 549.5,351.7 571.2,347.4 592.9,340.2 614.6,337.8 636.4,331.9 658.1,320.5 679.8,317.0 701.5,315.2 723.2,314.6 744.9,311.5 766.6,308.4 788.3,304.9 810.0,302.4 810.0,333.1 788.3,335.6 766.6,337.2 744.9,339.2 723.2,342.3 701.5,342.3 679.8,343.4 658.1,345.6 636.4,356.3 614.6,362.2 592.9,364.6 571.2,369.9 549.5,372.6 527.8,378.0 506.1,379.4 484.4,384.5 462.7,387.8 441.0,396.2 419.3,402.4 397.6,408.7 375.9,421.8 354.2,429.1 332.5,429.4 310.8,434.8 289.1,437.5 267.4,438.8 245.6,440.4 223.9,444.7 202.2,447.8 180.5,458.1 72.0,467.2" fill="#fb7185" fill-opacity="0.82" stroke="#fb7185" stroke-width="0.6"/><polygon points="72.0,466.5 180.5,453.0 202.2,441.9 223.9,438.8 245.6,434.5 267.4,432.8 289.1,431.6 310.8,428.9 332.5,423.5 354.2,423.2 375.9,415.8 397.6,401.6 419.3,390.5 441.0,381.8 462.7,365.5 484.4,361.3 506.1,350.6 527.8,345.7 549.5,334.9 571.2,330.6 592.9,320.1 614.6,315.7 636.4,309.2 658.1,295.2 679.8,290.8 701.5,288.8 723.2,288.2 744.9,284.8 766.6,281.6 788.3,276.3 810.0,273.8 810.0,302.4 788.3,304.9 766.6,308.4 744.9,311.5 723.2,314.6 701.5,315.2 679.8,317.0 658.1,320.5 636.4,331.9 614.6,337.8 592.9,340.2 571.2,347.4 549.5,351.7 527.8,358.9 506.1,362.1 484.4,370.7 462.7,374.9 441.0,388.6 419.3,396.9 397.6,407.5 375.9,421.8 354.2,429.1 332.5,429.4 310.8,434.8 289.1,437.5 267.4,438.8 245.6,440.4 223.9,444.7 202.2,447.8 180.5,458.1 72.0,467.2" fill="#c084fc" fill-opacity="0.82" stroke="#c084fc" stroke-width="0.6"/><polygon points="72.0,466.5 180.5,451.2 202.2,439.8 223.9,436.7 245.6,432.4 267.4,430.7 289.1,429.4 310.8,426.7 332.5,421.3 354.2,421.0 375.9,413.7 397.6,399.5 419.3,386.4 441.0,376.9 462.7,359.8 484.4,353.2 506.1,340.9 527.8,333.7 549.5,321.4 571.2,316.2 592.9,301.9 614.6,296.3 636.4,289.9 658.1,275.5 679.8,268.8 701.5,265.7 723.2,264.2 744.9,259.5 766.6,256.3 788.3,251.0 810.0,247.3 810.0,273.8 788.3,276.3 766.6,281.6 744.9,284.8 723.2,288.2 701.5,288.8 679.8,290.8 658.1,295.2 636.4,309.2 614.6,315.7 592.9,320.1 571.2,330.6 549.5,334.9 527.8,345.7 506.1,350.6 484.4,361.3 462.7,365.5 441.0,381.8 419.3,390.5 397.6,401.6 375.9,415.8 354.2,423.2 332.5,423.5 310.8,428.9 289.1,431.6 267.4,432.8 245.6,434.5 223.9,438.8 202.2,441.9 180.5,453.0 72.0,466.5" fill="#4ade80" fill-opacity="0.82" stroke="#4ade80" stroke-width="0.6"/><polygon points="72.0,466.5 180.5,451.2 202.2,439.8 223.9,436.7 245.6,432.4 267.4,427.8 289.1,425.8 310.8,420.2 332.5,414.0 354.2,413.7 375.9,406.0 397.6,391.7 419.3,378.3 441.0,367.6 462.7,346.2 484.4,338.2 506.1,324.8 527.8,314.8 549.5,302.5 571.2,297.4 592.9,282.4 614.6,275.7 636.4,268.5 658.1,251.8 679.8,244.5 701.5,241.4 723.2,239.1 744.9,234.4 766.6,230.7 788.3,224.8 810.0,221.1 810.0,247.3 788.3,251.0 766.6,256.3 744.9,259.5 723.2,264.2 701.5,265.7 679.8,268.8 658.1,275.5 636.4,289.9 614.6,296.3 592.9,301.9 571.2,316.2 549.5,321.4 527.8,333.7 506.1,340.9 484.4,353.2 462.7,359.8 441.0,376.9 419.3,386.4 397.6,399.5 375.9,413.7 354.2,421.0 332.5,421.3 310.8,426.7 289.1,429.4 267.4,430.7 245.6,432.4 223.9,436.7 202.2,439.8 180.5,451.2 72.0,466.5" fill="#fde047" fill-opacity="0.82" stroke="#fde047" stroke-width="0.6"/><polygon points="72.0,466.5 180.5,451.2 202.2,439.8 223.9,436.7 245.6,432.4 267.4,427.8 289.1,425.8 310.8,420.2 332.5,414.0 354.2,413.7 375.9,406.0 397.6,391.7 419.3,378.3 441.0,367.6 462.7,346.2 484.4,338.2 506.1,324.8 527.8,313.9 549.5,299.6 571.2,293.9 592.9,277.9 614.6,269.4 636.4,261.2 658.1,240.6 679.8,231.5 701.5,228.0 723.2,223.2 744.9,217.7 766.6,210.0 788.3,201.8 810.0,196.9 810.0,221.1 788.3,224.8 766.6,230.7 744.9,234.4 723.2,239.1 701.5,241.4 679.8,244.5 658.1,251.8 636.4,268.5 614.6,275.7 592.9,282.4 571.2,297.4 549.5,302.5 527.8,314.8 506.1,324.8 484.4,338.2 462.7,346.2 441.0,367.6 419.3,378.3 397.6,391.7 375.9,406.0 354.2,413.7 332.5,414.0 310.8,420.2 289.1,425.8 267.4,427.8 245.6,432.4 223.9,436.7 202.2,439.8 180.5,451.2 72.0,466.5" fill="#22d3ee" fill-opacity="0.82" stroke="#22d3ee" stroke-width="0.6"/><polygon points="72.0,466.5 180.5,449.6 202.2,436.3 223.9,433.2 245.6,428.9 267.4,424.3 289.1,422.3 310.8,416.7 332.5,410.4 354.2,410.1 375.9,402.5 397.6,388.2 419.3,373.5 441.0,362.9 462.7,340.5 484.4,331.0 506.1,316.9 527.8,304.8 549.5,289.7 571.2,284.0 592.9,265.5 614.6,255.9 636.4,247.3 658.1,226.7 679.8,216.1 701.5,212.7 723.2,203.6 744.9,197.2 766.6,189.4 788.3,180.8 810.0,176.0 810.0,196.9 788.3,201.8 766.6,210.0 744.9,217.7 723.2,223.2 701.5,228.0 679.8,231.5 658.1,240.6 636.4,261.2 614.6,269.4 592.9,277.9 571.2,293.9 549.5,299.6 527.8,313.9 506.1,324.8 484.4,338.2 462.7,346.2 441.0,367.6 419.3,378.3 397.6,391.7 375.9,406.0 354.2,413.7 332.5,414.0 310.8,420.2 289.1,425.8 267.4,427.8 245.6,432.4 223.9,436.7 202.2,439.8 180.5,451.2 72.0,466.5" fill="#f472b6" fill-opacity="0.82" stroke="#f472b6" stroke-width="0.6"/><polygon points="72.0,466.5 180.5,449.6 202.2,436.3 223.9,433.2 245.6,428.9 267.4,424.3 289.1,422.3 310.8,416.7 332.5,410.4 354.2,410.1 375.9,402.5 397.6,388.2 419.3,368.9 441.0,358.3 462.7,334.4 484.4,323.3 506.1,309.1 527.8,295.3 549.5,278.9 571.2,273.2 592.9,253.6 614.6,242.7 636.4,233.5 658.1,212.9 679.8,201.2 701.5,197.8 723.2,187.7 744.9,181.3 766.6,173.6 788.3,165.0 810.0,160.1 810.0,176.0 788.3,180.8 766.6,189.4 744.9,197.2 723.2,203.6 701.5,212.7 679.8,216.1 658.1,226.7 636.4,247.3 614.6,255.9 592.9,265.5 571.2,284.0 549.5,289.7 527.8,304.8 506.1,316.9 484.4,331.0 462.7,340.5 441.0,362.9 419.3,373.5 397.6,388.2 375.9,402.5 354.2,410.1 332.5,410.4 310.8,416.7 289.1,422.3 267.4,424.3 245.6,428.9 223.9,433.2 202.2,436.3 180.5,449.6 72.0,466.5" fill="#a3e635" fill-opacity="0.82" stroke="#a3e635" stroke-width="0.6"/><polygon points="72.0,466.5 180.5,449.6 202.2,436.3 223.9,433.2 245.6,428.9 267.4,424.3 289.1,422.3 310.8,416.7 332.5,410.4 354.2,410.1 375.9,402.5 397.6,388.2 419.3,368.9 441.0,358.3 462.7,334.4 484.4,323.3 506.1,309.1 527.8,295.3 549.5,278.9 571.2,273.2 592.9,253.6 614.6,242.7 636.4,233.5 658.1,212.9 679.8,201.2 701.5,197.8 723.2,184.3 744.9,170.7 766.6,162.0 788.3,150.4 810.0,145.2 810.0,160.1 788.3,165.0 766.6,173.6 744.9,181.3 723.2,187.7 701.5,197.8 679.8,201.2 658.1,212.9 636.4,233.5 614.6,242.7 592.9,253.6 571.2,273.2 549.5,278.9 527.8,295.3 506.1,309.1 484.4,323.3 462.7,334.4 441.0,358.3 419.3,368.9 397.6,388.2 375.9,402.5 354.2,410.1 332.5,410.4 310.8,416.7 289.1,422.3 267.4,424.3 245.6,428.9 223.9,433.2 202.2,436.3 180.5,449.6 72.0,466.5" fill="#818cf8" fill-opacity="0.82" stroke="#818cf8" stroke-width="0.6"/><polygon points="72.0,466.5 180.5,449.6 202.2,436.3 223.9,433.2 245.6,427.2 267.4,421.0 289.1,419.0 310.8,413.4 332.5,407.2 354.2,406.9 375.9,399.2 397.6,384.9 419.3,364.4 441.0,351.8 462.7,326.8 484.4,314.5 506.1,299.6 527.8,285.2 549.5,266.2 571.2,260.5 592.9,240.9 614.6,230.0 636.4,220.8 658.1,199.8 679.8,187.7 701.5,184.2 723.2,170.7 744.9,157.1 766.6,148.4 788.3,136.8 810.0,131.6 810.0,145.2 788.3,150.4 766.6,162.0 744.9,170.7 723.2,184.3 701.5,197.8 679.8,201.2 658.1,212.9 636.4,233.5 614.6,242.7 592.9,253.6 571.2,273.2 549.5,278.9 527.8,295.3 506.1,309.1 484.4,323.3 462.7,334.4 441.0,358.3 419.3,368.9 397.6,388.2 375.9,402.5 354.2,410.1 332.5,410.4 310.8,416.7 289.1,422.3 267.4,424.3 245.6,428.9 223.9,433.2 202.2,436.3 180.5,449.6 72.0,466.5" fill="#fb923c" fill-opacity="0.82" stroke="#fb923c" stroke-width="0.6"/><polygon points="72.0,466.5 180.5,449.6 202.2,436.3 223.9,433.2 245.6,427.2 267.4,421.0 289.1,419.0 310.8,413.4 332.5,407.2 354.2,406.9 375.9,399.2 397.6,384.9 419.3,364.4 441.0,351.8 462.7,326.8 484.4,314.5 506.1,299.6 527.8,285.2 549.5,266.2 571.2,260.5 592.9,240.1 614.6,228.9 636.4,219.7 658.1,196.3 679.8,184.2 701.5,180.7 723.2,167.2 744.9,153.6 766.6,144.1 788.3,131.6 810.0,126.3 810.0,131.6 788.3,136.8 766.6,148.4 744.9,157.1 723.2,170.7 701.5,184.2 679.8,187.7 658.1,199.8 636.4,220.8 614.6,230.0 592.9,240.9 571.2,260.5 549.5,266.2 527.8,285.2 506.1,299.6 484.4,314.5 462.7,326.8 441.0,351.8 419.3,364.4 397.6,384.9 375.9,399.2 354.2,406.9 332.5,407.2 310.8,413.4 289.1,419.0 267.4,421.0 245.6,427.2 223.9,433.2 202.2,436.3 180.5,449.6 72.0,466.5" fill="#38bdf8" fill-opacity="0.82" stroke="#38bdf8" stroke-width="0.6"/><polygon points="72.0,466.5 180.5,449.6 202.2,436.3 223.9,433.2 245.6,427.2 267.4,421.0 289.1,419.0 310.8,413.4 332.5,407.2 354.2,406.9 375.9,399.2 397.6,384.9 419.3,364.4 441.0,351.8 462.7,326.8 484.4,314.5 506.1,299.6 527.8,285.2 549.5,266.2 571.2,260.5 592.9,240.1 614.6,228.4 636.4,219.2 658.1,193.5 679.8,181.3 701.5,177.7 723.2,163.9 744.9,150.3 766.6,140.1 788.3,127.0 810.0,121.5 810.0,126.3 788.3,131.6 766.6,144.1 744.9,153.6 723.2,167.2 701.5,180.7 679.8,184.2 658.1,196.3 636.4,219.7 614.6,228.9 592.9,240.1 571.2,260.5 549.5,266.2 527.8,285.2 506.1,299.6 484.4,314.5 462.7,326.8 441.0,351.8 419.3,364.4 397.6,384.9 375.9,399.2 354.2,406.9 332.5,407.2 310.8,413.4 289.1,419.0 267.4,421.0 245.6,427.2 223.9,433.2 202.2,436.3 180.5,449.6 72.0,466.5" fill="#f87171" fill-opacity="0.82" stroke="#f87171" stroke-width="0.6"/>
  <line class="axis" x1="72" y1="62" x2="72" y2="468"/>
  <line class="axis" x1="72" y1="468" x2="810" y2="468"/>
  <text class="xtick" x="72.0" y="492">Jun 4</text><text class="xtick" x="180.5" y="492">Jun 9</text><text class="xtick" x="289.1" y="492">Jun 14</text><text class="xtick" x="397.6" y="492">Jun 19</text><text class="xtick" x="506.1" y="492">Jun 24</text><text class="xtick" x="614.6" y="492">Jun 29</text><text class="xtick" x="810.0" y="492">Jul 8</text>
  <text class="legendhead" x="836" y="58">roadmap — net lines</text><rect x="836" y="66" width="13" height="13" rx="3" fill="#5eead4"/><text class="legend" x="856" y="77">ReductiveGroups</text><text class="legendval" x="1116" y="77">16,117</text><rect x="836" y="88" width="13" height="13" rx="3" fill="#ff9d4d"/><text class="legend" x="856" y="99">HeegaardFloer</text><text class="legendval" x="1116" y="99">8,833</text><rect x="836" y="110" width="13" height="13" rx="3" fill="#60a5fa"/><text class="legend" x="856" y="121">OneParameterSemigroups</text><text class="legendval" x="1116" y="121">8,287</text><rect x="836" y="132" width="13" height="13" rx="3" fill="#fb7185"/><text class="legend" x="856" y="143">CombinatorialHeegaardFloer</text><text class="legendval" x="1116" y="143">7,554</text><rect x="836" y="154" width="13" height="13" rx="3" fill="#c084fc"/><text class="legend" x="856" y="165">UniversalCovers</text><text class="legendval" x="1116" y="165">7,047</text><rect x="836" y="176" width="13" height="13" rx="3" fill="#4ade80"/><text class="legend" x="856" y="187">JacobianChallenge</text><text class="legendval" x="1116" y="187">6,519</text><rect x="836" y="198" width="13" height="13" rx="3" fill="#fde047"/><text class="legend" x="856" y="209">Multiquadratic</text><text class="legendval" x="1116" y="209">6,444</text><rect x="836" y="220" width="13" height="13" rx="3" fill="#22d3ee"/><text class="legend" x="856" y="231">Exchangeability</text><text class="legendval" x="1116" y="231">5,962</text><rect x="836" y="242" width="13" height="13" rx="3" fill="#f472b6"/><text class="legend" x="856" y="253">PDE</text><text class="legendval" x="1116" y="253">5,160</text><rect x="836" y="264" width="13" height="13" rx="3" fill="#a3e635"/><text class="legend" x="856" y="275">GeometricTopology</text><text class="legendval" x="1116" y="275">3,909</text><rect x="836" y="286" width="13" height="13" rx="3" fill="#818cf8"/><text class="legend" x="856" y="297">ContourIntegration</text><text class="legendval" x="1116" y="297">3,680</text><rect x="836" y="308" width="13" height="13" rx="3" fill="#fb923c"/><text class="legend" x="856" y="319">EffectiveBounds</text><text class="legendval" x="1116" y="319">3,348</text><rect x="836" y="330" width="13" height="13" rx="3" fill="#38bdf8"/><text class="legend" x="856" y="341">OrthogonalL2Bases</text><text class="legendval" x="1116" y="341">1,300</text><rect x="836" y="352" width="13" height="13" rx="3" fill="#f87171"/><text class="legend" x="856" y="363">ConformalMapping</text><text class="legendval" x="1116" y="363">1,178</text>
</svg>
