<svg xmlns="http://www.w3.org/2000/svg" viewBox="0 0 900 460"
     font-family="ui-sans-serif,system-ui,-apple-system,'Segoe UI',Roboto,sans-serif" role="img"
     aria-label="Tau Ceti — lines of Lean: 38,542 lines as of 2026-06-24">
  <defs>
    <linearGradient id="gff9d4d" x1="0" y1="0" x2="0" y2="1">
      <stop offset="0" stop-color="#ff9d4d" stop-opacity="0.28"/>
      <stop offset="1" stop-color="#ff9d4d" stop-opacity="0"/>
    </linearGradient>
  </defs>
  <style>
    .grid{stroke:rgba(255,255,255,0.08);stroke-width:1}
    .axis{stroke:rgba(255,255,255,0.18);stroke-width:1}
    .ytick{fill:#9aa6c9;font-size:13px;text-anchor:end}
    .xtick{fill:#9aa6c9;font-size:13px;text-anchor:middle}
    .title{fill:#eef2fb;font-size:19px;font-weight:600}
    .sub{fill:#9aa6c9;font-size:13px}
    .line{fill:none;stroke:#ff9d4d;stroke-width:2.5;stroke-linejoin:round;stroke-linecap:round}
    circle{fill:#ff9d4d}
  </style>
  <rect x="0.5" y="0.5" width="899" height="459" rx="12" fill="#101936" stroke="#1b2547"/>
  <text class="title" x="72" y="30">Tau Ceti — lines of Lean</text>
  <text class="sub" x="72" y="48">38,542 lines as of 2026-06-24</text>
  <line class="grid" x1="72" y1="408.0" x2="872" y2="408.0"/><text class="ytick" x="60" y="412.0">0</text><line class="grid" x1="72" y1="338.4" x2="872" y2="338.4"/><text class="ytick" x="60" y="342.4">10,000</text><line class="grid" x1="72" y1="268.8" x2="872" y2="268.8"/><text class="ytick" x="60" y="272.8">20,000</text><line class="grid" x1="72" y1="199.2" x2="872" y2="199.2"/><text class="ytick" x="60" y="203.2">30,000</text><line class="grid" x1="72" y1="129.6" x2="872" y2="129.6"/><text class="ytick" x="60" y="133.6">40,000</text><line class="grid" x1="72" y1="60.0" x2="872" y2="60.0"/><text class="ytick" x="60" y="64.0">50,000</text>
  <line class="axis" x1="72" y1="60" x2="72" y2="408"/>
  <line class="axis" x1="72" y1="408" x2="872" y2="408"/>
  <polygon points="72,408 72.0,407.8 110.1,405.3 300.6,384.3 338.7,364.2 376.8,348.1 414.9,340.8 453.0,327.3 529.1,316.5 567.2,306.0 605.3,303.0 643.4,289.6 681.5,271.8 719.6,248.6 757.7,208.4 795.8,180.0 833.9,148.0 872.0,139.7 872,408" fill="url(#gff9d4d)"/>
  <polyline class="line" points="72.0,407.8 110.1,405.3 300.6,384.3 338.7,364.2 376.8,348.1 414.9,340.8 453.0,327.3 529.1,316.5 567.2,306.0 605.3,303.0 643.4,289.6 681.5,271.8 719.6,248.6 757.7,208.4 795.8,180.0 833.9,148.0 872.0,139.7"/>
  <circle cx="72.0" cy="407.8" r="3"/><circle cx="110.1" cy="405.3" r="3"/><circle cx="300.6" cy="384.3" r="3"/><circle cx="338.7" cy="364.2" r="3"/><circle cx="376.8" cy="348.1" r="3"/><circle cx="414.9" cy="340.8" r="3"/><circle cx="453.0" cy="327.3" r="3"/><circle cx="529.1" cy="316.5" r="3"/><circle cx="567.2" cy="306.0" r="3"/><circle cx="605.3" cy="303.0" r="3"/><circle cx="643.4" cy="289.6" r="3"/><circle cx="681.5" cy="271.8" r="3"/><circle cx="719.6" cy="248.6" r="3"/><circle cx="757.7" cy="208.4" r="3"/><circle cx="795.8" cy="180.0" r="3"/><circle cx="833.9" cy="148.0" r="3"/><circle cx="872.0" cy="139.7" r="3"/>
  <text class="xtick" x="72.0" y="432">Jun 3</text><text class="xtick" x="300.6" y="432">Jun 9</text><text class="xtick" x="414.9" y="432">Jun 12</text><text class="xtick" x="529.1" y="432">Jun 15</text><text class="xtick" x="643.4" y="432">Jun 18</text><text class="xtick" x="757.7" y="432">Jun 21</text><text class="xtick" x="872.0" y="432">Jun 24</text>
</svg>
